<svg data-v-6754dbd3="" viewBox="0 0 14.999 15" height="15" width="14.999" xmlns="http://www.w3.org/2000/svg" class="dependency-toggle">
  <g xmlns="http://www.w3.org/2000/svg" id="Group_1224" data-name="Group 1224" transform="translate(-1007.173 -550.34)">
    <g id="Path_569-2" data-name="Path 569-2">
      <path id="Path_571" data-name="Path 571" d="M1015.2,561.434a.509.509,0,0,1,.719,0h0l2.691,2.682,2.69-2.682a.509.509,0,1,1,.723.717l-3.05,3.04a.51.51,0,0,1-.719,0h0l-3.054-3.04a.5.5,0,0,1,0-.716Z"></path>
    </g>
    <g id="Path_569-2-2" data-name="Path 569-2">
      <path id="Path_572" data-name="Path 572" d="M1014.146,554.245a.509.509,0,0,1-.719,0h0l-2.691-2.681-2.69,2.682a.509.509,0,1,1-.723-.718l3.05-3.039a.509.509,0,0,1,.719,0h0l3.054,3.039a.506.506,0,0,1,0,.717h0Z"></path>
    </g>
    <g id="Group_1224-2" data-name="Group 1224">
      <path id="Path_573" data-name="Path 573" d="M1019.117,564.867h-1.01v-5.7a.8.8,0,0,0-.8-.8h-5.261a1.813,1.813,0,0,1-1.813-1.807v-5.705h1.009v5.705a.8.8,0,0,0,.8.8h5.261a1.812,1.812,0,0,1,1.814,1.806Z"></path>
    </g>
  </g>
</svg>