<svg width="24" height="20" viewBox="0 0 24 20" fill="none" xmlns="http://www.w3.org/2000/svg">
<path d="M16.3519 9.88573C14.3094 9.88573 12.2668 9.88726 10.2242 9.88496C9.49382 9.88419 8.94283 9.44656 8.79645 8.75402C8.76867 8.62426 8.76717 8.48759 8.76717 8.354C8.76567 6.38003 8.78218 4.40605 8.75891 2.43208C8.7484 1.54606 9.40899 0.875785 10.2768 0.887302C12.2067 0.911871 14.1375 0.894979 16.0674 0.894979C18.1851 0.894979 20.3019 0.913407 22.4196 0.886534C23.3467 0.875017 23.9765 1.57831 23.9645 2.4651C23.9382 4.42602 23.957 6.38847 23.9562 8.34939C23.9562 9.28763 23.3767 9.88419 22.4616 9.88496C20.5504 9.8865 18.6385 9.88496 16.7273 9.88496C16.6027 9.88496 16.478 9.88496 16.3527 9.88496L16.3519 9.88573ZM19.8643 6.00381C18.953 6.00381 18.0417 6.00688 17.1304 6.00074C16.9892 5.99997 16.9517 6.0399 16.9532 6.18194C16.96 6.94819 16.96 7.71444 16.9532 8.48068C16.9517 8.6281 16.9983 8.66111 17.1349 8.66035C18.914 8.65574 20.693 8.65804 22.4721 8.65727C22.7026 8.65727 22.7551 8.60123 22.7551 8.36014C22.7559 7.63228 22.7506 6.90442 22.7589 6.17656C22.7604 6.02685 22.7138 5.99997 22.5795 6.00074C21.6742 6.00688 20.7689 6.00381 19.8636 6.00381L19.8643 6.00381ZM19.8538 4.77613C20.7591 4.77613 21.6644 4.77306 22.569 4.7792C22.7086 4.77997 22.7604 4.75386 22.7589 4.59493C22.7499 3.87321 22.7551 3.15226 22.7544 2.43055C22.7544 2.17104 22.7056 2.12267 22.4436 2.12267C20.6773 2.12267 18.9102 2.1242 17.1439 2.1196C17.002 2.1196 16.9502 2.15184 16.9517 2.30847C16.96 3.06858 16.9592 3.82791 16.9517 4.58802C16.9502 4.73697 16.9877 4.7815 17.1379 4.77997C18.0432 4.77306 18.9485 4.77613 19.853 4.77613L19.8538 4.77613ZM12.8598 6.00381C11.9545 6.00381 11.0492 6.00612 10.1439 6.00074C10.011 5.99997 9.96073 6.02531 9.96223 6.17657C9.97049 6.90442 9.96524 7.63305 9.96599 8.36091C9.96599 8.61581 10.0088 8.65727 10.2655 8.65804C12.0326 8.65804 13.7997 8.65574 15.5667 8.66188C15.7296 8.66188 15.7596 8.60737 15.7581 8.45535C15.7506 7.70829 15.7506 6.96047 15.7581 6.21342C15.7596 6.05218 15.7289 5.9969 15.5562 5.99921C14.6569 6.00919 13.7576 6.00381 12.8591 6.00381L12.8598 6.00381ZM12.8613 4.77613C13.7666 4.77613 14.6719 4.77306 15.5772 4.7792C15.7109 4.77997 15.7604 4.75386 15.7581 4.60338C15.7506 3.83713 15.7499 3.07088 15.7581 2.30386C15.7596 2.14263 15.7011 2.11883 15.5645 2.1196C13.8034 2.12343 12.0431 2.1219 10.282 2.12267C10.002 2.12267 9.96524 2.15952 9.96524 2.44053C9.96524 3.14919 9.96974 3.85863 9.96148 4.56729C9.95923 4.72929 9.99151 4.78304 10.1634 4.78073C11.0627 4.77075 11.962 4.77613 12.8606 4.77613L12.8613 4.77613Z" fill="#2045BC"/>
<path d="M6.96998 18.9335C6.99223 19.0818 6.93662 19.2399 6.80872 19.3437C6.75728 19.3896 6.69617 19.4259 6.6289 19.4507C6.56163 19.4755 6.48952 19.4883 6.41669 19.4883C6.34386 19.4883 6.27175 19.4755 6.20448 19.4507C6.13721 19.4259 6.0761 19.3896 6.02466 19.3437L3.79479 17.3616C3.73414 17.3089 3.68803 17.2445 3.66006 17.1733C3.63208 17.1021 3.623 17.0262 3.63353 16.9514V14.4206L0.969931 11.3906C0.879629 11.2875 0.838883 11.1569 0.856596 11.0273C0.874309 10.8976 0.949042 10.7794 1.06446 10.6986C1.17012 10.6294 1.28689 10.5898 1.40923 10.5898H9.19428C9.31662 10.5898 9.4334 10.6294 9.53905 10.6986C9.65447 10.7794 9.72921 10.8976 9.74692 11.0273C9.76463 11.1569 9.72389 11.2875 9.63358 11.3906L6.96998 14.4206V18.9335ZM2.54362 11.5784L4.74568 14.0795V16.808L5.85783 17.7966V14.0746L8.05989 11.5784H2.54362Z" fill="#2045BC"/>
<path d="M16.3672 13.9779C18.3902 13.9779 20.4133 13.9779 22.4363 13.9779C23.3746 13.9779 23.9542 14.5706 23.9549 15.5304C23.9549 16.15 23.9564 16.7696 23.9549 17.3892C23.9519 18.2721 23.3551 18.8848 22.4941 18.8856C18.4045 18.8871 14.3141 18.8871 10.2244 18.8856C9.36792 18.8856 8.77339 18.2844 8.76664 17.4107C8.76138 16.7596 8.76138 16.1077 8.76664 15.4559C8.77339 14.5806 9.36567 13.9794 10.2229 13.9787C12.2708 13.9771 14.3193 13.9787 16.3672 13.9787L16.3672 13.9779ZM19.812 15.2056C18.9194 15.2056 18.0276 15.2079 17.1351 15.2025C17.003 15.2017 16.9504 15.2255 16.9519 15.3776C16.9602 16.0793 16.9602 16.7818 16.9519 17.4836C16.9504 17.6325 16.997 17.661 17.1328 17.661C18.9112 17.6563 20.6895 17.6579 22.4678 17.6579C22.6945 17.6579 22.7538 17.5957 22.7538 17.3615C22.7546 16.755 22.7538 16.1484 22.7538 15.5426C22.7538 15.2547 22.7073 15.2056 22.4318 15.2056C21.558 15.2056 20.6843 15.2056 19.8112 15.2056L19.812 15.2056ZM12.8968 15.2056C12.0163 15.2056 11.1365 15.2056 10.256 15.2056C10.021 15.2056 9.9662 15.2593 9.96545 15.4958C9.96395 16.1154 9.96395 16.735 9.96545 17.3538C9.96545 17.6064 10.0157 17.6579 10.2605 17.6579C12.0335 17.6579 13.8066 17.6563 15.5797 17.661C15.7171 17.661 15.7599 17.6287 15.7584 17.4828C15.7509 16.7934 15.7501 16.1031 15.7584 15.4136C15.7606 15.2516 15.7276 15.1979 15.5564 15.2002C14.6699 15.2102 13.7834 15.2048 12.8968 15.2048L12.8968 15.2056Z" fill="#2045BC"/>
</svg>
