<svg width="19" height="22" viewBox="0 0 19 22" fill="none" xmlns="http://www.w3.org/2000/svg">
<path d="M9.32179 13.9252C9.32179 11.8826 9.32025 9.84003 9.32256 7.79746C9.32333 7.06706 9.76096 6.51607 10.4535 6.36969C10.5833 6.34191 10.7199 6.34041 10.8535 6.34041C12.8275 6.33891 14.8015 6.35543 16.7754 6.33215C17.6615 6.32165 18.3317 6.98223 18.3202 7.85001C18.2956 9.77998 18.3125 11.7107 18.3125 13.6407C18.3125 15.7583 18.2941 17.8752 18.321 19.9928C18.3325 20.9199 17.6292 21.5497 16.7424 21.5377C14.7815 21.5114 12.819 21.5302 10.8581 21.5294C9.91989 21.5294 9.32333 20.9499 9.32256 20.0349C9.32102 18.1237 9.32256 16.2117 9.32256 14.3005C9.32256 14.1759 9.32256 14.0513 9.32256 13.9259L9.32179 13.9252ZM13.2037 17.4375C13.2037 16.5262 13.2006 15.6149 13.2068 14.7036C13.2075 14.5625 13.1676 14.525 13.0256 14.5265C12.2593 14.5332 11.4931 14.5332 10.7268 14.5265C10.5794 14.525 10.5464 14.5715 10.5472 14.7081C10.5518 16.4872 10.5495 18.2663 10.5502 20.0454C10.5502 20.2758 10.6063 20.3284 10.8474 20.3284C11.5752 20.3291 12.3031 20.3239 13.031 20.3321C13.1807 20.3336 13.2075 20.2871 13.2068 20.1527C13.2006 19.2474 13.2037 18.3421 13.2037 17.4368V17.4375ZM14.4314 17.427C14.4314 18.3323 14.4345 19.2377 14.4283 20.1422C14.4276 20.2818 14.4537 20.3336 14.6126 20.3321C15.3343 20.3231 16.0553 20.3284 16.777 20.3276C17.0365 20.3276 17.0849 20.2788 17.0849 20.0168C17.0849 18.2505 17.0833 16.4834 17.0879 14.7171C17.0879 14.5752 17.0557 14.5235 16.899 14.525C16.1389 14.5332 15.3796 14.5325 14.6195 14.525C14.4705 14.5235 14.426 14.561 14.4276 14.7111C14.4345 15.6164 14.4314 16.5217 14.4314 17.4263V17.427ZM13.2037 10.4331C13.2037 9.52775 13.2014 8.62245 13.2068 7.71714C13.2075 7.58427 13.1822 7.53398 13.031 7.53548C12.3031 7.54373 11.5745 7.53848 10.8466 7.53923C10.5917 7.53923 10.5502 7.58202 10.5495 7.83875C10.5495 9.60582 10.5518 11.3729 10.5456 13.14C10.5456 13.3029 10.6002 13.3329 10.7522 13.3314C11.4992 13.3239 12.247 13.3239 12.9941 13.3314C13.1553 13.3329 13.2106 13.3021 13.2083 13.1295C13.1983 12.2302 13.2037 11.3309 13.2037 10.4323V10.4331ZM14.4314 10.4346C14.4314 11.3399 14.4345 12.2452 14.4283 13.1505C14.4276 13.2841 14.4537 13.3336 14.6041 13.3314C15.3704 13.3239 16.1366 13.3231 16.9037 13.3314C17.0649 13.3329 17.0887 13.2743 17.0879 13.1377C17.0841 11.3766 17.0856 9.61633 17.0849 7.85526C17.0849 7.57526 17.048 7.53848 16.767 7.53848C16.0583 7.53848 15.3489 7.54298 14.6402 7.53473C14.4782 7.53247 14.4245 7.56475 14.4268 7.73666C14.4368 8.63596 14.4314 9.53526 14.4314 10.4338V10.4346Z" fill="#2045BC"/>
<path d="M5.23012 13.9409C5.23012 15.9639 5.23012 17.987 5.23012 20.01C5.23012 20.9484 4.63739 21.5279 3.67766 21.5286C3.05806 21.5286 2.43845 21.5301 1.81885 21.5286C0.9359 21.5256 0.323209 20.9289 0.322441 20.0678C0.320905 15.9782 0.320905 11.8878 0.322441 7.79817C0.322441 6.94165 0.923615 6.34712 1.79735 6.34037C2.44843 6.33511 3.10028 6.33511 3.75213 6.34037C4.62741 6.34712 5.22858 6.9394 5.22935 7.79666C5.23088 9.84449 5.22935 11.8931 5.22935 13.9409H5.23012ZM4.00243 17.3857C4.00243 16.4932 4.00013 15.6014 4.0055 14.7088C4.00627 14.5767 3.98247 14.5242 3.83045 14.5257C3.12869 14.5339 2.42617 14.5339 1.72441 14.5257C1.57546 14.5242 1.54706 14.5707 1.54706 14.7066C1.55166 16.4849 1.55013 18.2632 1.55013 20.0416C1.55013 20.2683 1.61232 20.3276 1.84649 20.3276C2.45304 20.3283 3.05959 20.3276 3.66537 20.3276C3.95329 20.3276 4.00243 20.281 4.00243 20.0055C4.00243 19.1318 4.00243 18.258 4.00243 17.385V17.3857ZM4.00243 10.4705C4.00243 9.59001 4.00243 8.71023 4.00243 7.82969C4.00243 7.59473 3.94868 7.53994 3.71221 7.53918C3.09261 7.53768 2.473 7.53768 1.85417 7.53918C1.60157 7.53918 1.55013 7.58948 1.55013 7.8342C1.55013 9.60728 1.55166 11.3804 1.54706 13.1534C1.54706 13.2908 1.5793 13.3336 1.72518 13.3321C2.41465 13.3246 3.10489 13.3238 3.79436 13.3321C3.95636 13.3343 4.01011 13.3013 4.0078 13.1302C3.99782 12.2436 4.0032 11.3571 4.0032 10.4705H4.00243Z" fill="#2045BC"/>
<path d="M8.65402 7.87153C8.67448 8.00792 8.62333 8.15341 8.5057 8.24888C8.45838 8.29103 8.40218 8.32446 8.3403 8.34728C8.27843 8.37009 8.2121 8.38184 8.14512 8.38184C8.07813 8.38184 8.0118 8.37009 7.94993 8.34728C7.88805 8.32446 7.83185 8.29103 7.78453 8.24888L5.73356 6.42579C5.67778 6.37732 5.63536 6.31803 5.60963 6.25257C5.5839 6.18711 5.57555 6.11724 5.58523 6.04844V3.7207L3.13532 0.933777C3.05226 0.838999 3.01478 0.718851 3.03108 0.599587C3.04737 0.480323 3.1161 0.37164 3.22227 0.297286C3.31945 0.233637 3.42685 0.197266 3.53938 0.197266H10.6999C10.8124 0.197266 10.9198 0.233637 11.017 0.297286C11.1232 0.37164 11.1919 0.480323 11.2082 0.599587C11.2245 0.718851 11.187 0.838999 11.1039 0.933777L8.65402 3.7207V7.87153ZM4.58276 1.10654L6.60816 3.407V5.91659L7.63109 6.82587V3.40245L9.65649 1.10654H4.58276Z" fill="#2045BC"/>
</svg>
