<svg id="Group_1071" data-name="Group 1071"  xmlns="http://www.w3.org/2000/svg" xmlns:xlink="http://www.w3.org/1999/xlink" width="147.79" height="35" viewBox="0 0 147.79 35">
  <defs>
    <clipPath id="clip-path">
      <rect id="Rectangle_1022" data-name="Rectangle 1022" width="147.79" height="35" fill="none"/>
    </clipPath>
    <clipPath id="clip-path-3">
      <rect id="Rectangle_1018" data-name="Rectangle 1018" width="25.93" height="8.746" fill="none"/>
    </clipPath>
    <clipPath id="clip-path-4">
      <rect id="Rectangle_1019" data-name="Rectangle 1019" width="8.749" height="25.795" fill="none"/>
    </clipPath>
    <clipPath id="clip-path-5">
      <rect id="Rectangle_1020" data-name="Rectangle 1020" width="25.802" height="8.746" fill="none"/>
    </clipPath>
  </defs>
  <g id="Group_1082" data-name="Group 1082" clip-path="url(#clip-path)">
    <g id="Group_1081" data-name="Group 1081" transform="translate(0 0)">
      <g id="Group_1080" data-name="Group 1080" clip-path="url(#clip-path)">
        <path id="Path_517" data-name="Path 517" d="M186.024,31.249v8.746h-8.745V15.842a5.022,5.022,0,0,1,.456-2.1h8.289Z" transform="translate(-64.483 -4.999)"/>
        <g id="Group_1073" data-name="Group 1073" transform="translate(113.252)" opacity="0.8" style="isolation: isolate">
          <g id="Group_1072" data-name="Group 1072">
            <g id="Group_1071-2" data-name="Group 1071" clip-path="url(#clip-path-3)">
              <path id="Path_518" data-name="Path 518" d="M201.822,0H188.44a5.1,5.1,0,0,0-3.6,1.484l-5.81,5.779A5.037,5.037,0,0,0,178,8.746h25.93V.455a5.075,5.075,0,0,0-2.1-.455" transform="translate(-177.996 0)"/>
            </g>
          </g>
        </g>
        <g id="Group_1076" data-name="Group 1076" transform="translate(139.041 0.455)" opacity="0.6" style="isolation: isolate">
          <g id="Group_1075" data-name="Group 1075">
            <g id="Group_1074" data-name="Group 1074" clip-path="url(#clip-path-4)">
              <path id="Path_519" data-name="Path 519" d="M218.529,9.009v17.5h8.294a5.033,5.033,0,0,0,.455-2.1V11.1a5.046,5.046,0,0,0-.454-2.1h0A5.091,5.091,0,0,0,225.8,7.522l-5.782-5.78A5.013,5.013,0,0,0,218.529.715V9.006" transform="translate(-218.529 -0.715)"/>
            </g>
          </g>
        </g>
        <g id="Group_1079" data-name="Group 1079" transform="translate(121.539 26.25)" opacity="0.4" style="isolation: isolate">
          <g id="Group_1078" data-name="Group 1078">
            <g id="Group_1077" data-name="Group 1077" clip-path="url(#clip-path-5)">
              <path id="Path_520" data-name="Path 520" d="M216.823,41.257a5.056,5.056,0,0,1-1.028,1.485l-5.783,5.779A5.06,5.06,0,0,1,206.431,50h-15.41V41.257Z" transform="translate(-191.021 -41.257)"/>
            </g>
          </g>
        </g>
        <path id="Path_521" data-name="Path 521" d="M0,43.727V25.01H7.019a7.455,7.455,0,0,1,3.627.8,5.4,5.4,0,0,1,2.221,2.207,7.114,7.114,0,0,1,0,6.384,5.393,5.393,0,0,1-2.239,2.2,7.594,7.594,0,0,1-3.649.8H2.32V34.615h4.2a4.3,4.3,0,0,0,2.065-.438,2.8,2.8,0,0,0,1.192-1.209,3.856,3.856,0,0,0,.388-1.764,3.8,3.8,0,0,0-.388-1.755,2.725,2.725,0,0,0-1.2-1.183A4.452,4.452,0,0,0,6.5,27.841H3.391V43.727Zm14.761,0V25.01h7.016a7.455,7.455,0,0,1,3.627.8,5.4,5.4,0,0,1,2.221,2.207,7.114,7.114,0,0,1,0,6.384,5.393,5.393,0,0,1-2.239,2.2,7.589,7.589,0,0,1-3.65.8h-4.65V34.615h4.195a4.3,4.3,0,0,0,2.065-.438,2.8,2.8,0,0,0,1.192-1.209,3.856,3.856,0,0,0,.388-1.764,3.8,3.8,0,0,0-.388-1.755,2.725,2.725,0,0,0-1.2-1.183,4.452,4.452,0,0,0-2.079-.425H18.149V43.727ZM29.522,25.01h4.149l5.551,13.563h.22L45,25.01h4.15V43.727H45.894V30.868H45.72l-5.173,12.8H38.116L32.944,30.841H32.77V43.727H29.517Zm42.129,6.315H68.233a4.3,4.3,0,0,0-.539-1.494,4.021,4.021,0,0,0-.978-1.11,4.154,4.154,0,0,0-1.33-.69,5.352,5.352,0,0,0-1.6-.233,4.868,4.868,0,0,0-2.705.764,5.069,5.069,0,0,0-1.845,2.227,8.612,8.612,0,0,0-.667,3.578,8.662,8.662,0,0,0,.672,3.615,4.988,4.988,0,0,0,1.845,2.212,4.914,4.914,0,0,0,2.691.745,5.4,5.4,0,0,0,1.577-.224,4.3,4.3,0,0,0,1.325-.662,4.017,4.017,0,0,0,.989-1.077,4.125,4.125,0,0,0,.562-1.463l3.418.018a7.4,7.4,0,0,1-2.486,4.565,7.51,7.51,0,0,1-2.394,1.389,8.846,8.846,0,0,1-3.043.5,8.5,8.5,0,0,1-4.4-1.145,7.975,7.975,0,0,1-3.054-3.3,11.14,11.14,0,0,1-1.115-5.173,11.058,11.058,0,0,1,1.128-5.172A8.039,8.039,0,0,1,59.336,25.9a8.477,8.477,0,0,1,4.387-1.145,9.305,9.305,0,0,1,2.906.438,7.5,7.5,0,0,1,2.394,1.284,6.993,6.993,0,0,1,1.732,2.065,7.787,7.787,0,0,1,.889,2.784ZM78.943,44a6.8,6.8,0,0,1-3.563-.9,6.114,6.114,0,0,1-2.335-2.532,8.28,8.28,0,0,1-.827-3.8,8.339,8.339,0,0,1,.827-3.811A6.1,6.1,0,0,1,75.38,30.41a7.472,7.472,0,0,1,7.126,0,6.1,6.1,0,0,1,2.335,2.541,8.339,8.339,0,0,1,.827,3.811,8.28,8.28,0,0,1-.827,3.8A6.114,6.114,0,0,1,82.506,43.1,6.8,6.8,0,0,1,78.937,44Zm.018-2.65a2.836,2.836,0,0,0,1.864-.617,3.684,3.684,0,0,0,1.12-1.659,7.5,7.5,0,0,0,0-4.656,3.721,3.721,0,0,0-1.12-1.668,2.822,2.822,0,0,0-1.864-.622,2.88,2.88,0,0,0-1.9.622,3.7,3.7,0,0,0-1.13,1.668,7.5,7.5,0,0,0,0,4.656,3.676,3.676,0,0,0,1.124,1.659,2.893,2.893,0,0,0,1.9.617Zm7.7,2.376V29.689h3.2v2.34h.146a3.519,3.519,0,0,1,1.317-1.881,3.62,3.62,0,0,1,2.143-.662c.183,0,.389.008.617.023a4.552,4.552,0,0,1,.573.069v3.046A3.667,3.667,0,0,0,94,32.49a6.677,6.677,0,0,0-.873-.059,3.35,3.35,0,0,0-1.622.388,2.9,2.9,0,0,0-1.129,1.074,3.011,3.011,0,0,0-.411,1.581v8.252ZM100.7,44a7.176,7.176,0,0,1-3.642-.882,5.9,5.9,0,0,1-2.354-2.5,8.361,8.361,0,0,1-.827-3.825,8.351,8.351,0,0,1,.827-3.806,6.228,6.228,0,0,1,2.317-2.559,6.536,6.536,0,0,1,3.5-.919,7.2,7.2,0,0,1,2.454.416,5.636,5.636,0,0,1,2.047,1.284,6.035,6.035,0,0,1,1.4,2.207,8.912,8.912,0,0,1,.509,3.185v1.014h-11.5V35.386h8.335a3.588,3.588,0,0,0-.411-1.695,3.011,3.011,0,0,0-1.12-1.175,3.181,3.181,0,0,0-1.668-.429,3.242,3.242,0,0,0-1.782.489,3.407,3.407,0,0,0-1.192,1.28,3.679,3.679,0,0,0-.434,1.732v1.941a4.552,4.552,0,0,0,.445,2.1,3.156,3.156,0,0,0,1.252,1.336,3.72,3.72,0,0,0,1.883.461,3.931,3.931,0,0,0,1.307-.206,2.851,2.851,0,0,0,1.014-.608,2.548,2.548,0,0,0,.649-1l3.089.347a4.8,4.8,0,0,1-1.11,2.134A5.412,5.412,0,0,1,103.6,43.5a7.914,7.914,0,0,1-2.906.5Z" transform="translate(0 -9.003)"/>
      </g>
    </g>
  </g>
</svg>
