<svg xmlns="http://www.w3.org/2000/svg"  width="34.535" height="34.537" viewBox="0 0 34.535 34.537">
  <g id="Artwork_4" data-name="Artwork 4" transform="translate(353.034 87.666)">
    <g id="Group_23" data-name="Group 23" transform="translate(-353.034 -87.666)">
      <g id="Group_21" data-name="Group 21">
        <path id="Path_44" data-name="Path 44" d="M43.814,131.518H69.276a5,5,0,0,1-1.015,1.464l-5.706,5.7a5,5,0,0,1-3.533,1.464H43.814Z" transform="translate(-35.184 -105.612)" opacity="0.4"/>
        <g id="Group_20" data-name="Group 20">
          <g id="Group_19" data-name="Group 19">
            <path id="Path_45" data-name="Path 45" d="M8.63,43.818V69.723H0V45.886a4.957,4.957,0,0,1,.451-2.068Z" transform="translate(0 -35.187)"/>
            <path id="Path_46" data-name="Path 46" d="M25.674,0H12.537A4.987,4.987,0,0,0,9,1.464l-5.7,5.7A4.959,4.959,0,0,0,2.288,8.631H27.739V.449A4.967,4.967,0,0,0,25.674,0Z" transform="translate(-1.837)" opacity="0.8"/>
          </g>
          <path id="Path_47" data-name="Path 47" d="M131.493,10.463v17.27l8.185,0a4.98,4.98,0,0,0,.448-2.069V12.529a4.979,4.979,0,0,0-.448-2.069h0A5.008,5.008,0,0,0,138.669,9l-5.706-5.7a4.946,4.946,0,0,0-1.47-1.016v8.183" transform="translate(-105.591 -1.829)" opacity="0.6"/>
        </g>
      </g>
    </g>
  </g>
</svg>
